<?xml version="1.0" encoding="UTF-8" standalone="yes"?>
<!DOCTYPE svg PUBLIC "-//W3C//DTD SVG 1.1//EN" "http://www.w3.org/Graphics/SVG/1.1/DTD/svg11.dtd">

<svg width="410" height="88" viewBox="0 0 410 88" xmlns="http://www.w3.org/2000/svg" xmlns:xlink="http://www.w3.org/1999/xlink" version="1.1" baseProfile="full">
    <g transform="scale(1.000000,-1.000000) translate(0,-88)">
        <path d="M 59.663404 69.844638 C 68.462143 75.624316 77.337880 81.294002 85.993634 87.288140 C 85.988130 78.874352 85.949631 70.460556 86.015619 62.046759 C 79.229577 57.284440 72.168607 52.923568 65.289087 48.293224 C 60.466267 45.125690 55.720445 41.837155 50.853655 38.741096 C 54.136702 35.012630 57.991622 31.861576 61.434134 28.292593 C 70.496859 19.180394 79.647522 10.161689 88.655234 1.000000 C 78.701674 1.005505 68.753584 1.016497 58.800024 1.000000 C 39.525292 20.236250 20.283554 39.510982 1.019798 58.758224 C 1.091290 67.947412 0.871325 77.142095 1.129789 86.331282 C 3.549439 84.950975 5.336682 82.751290 7.349396 80.876065 C 11.534289 76.636169 16.120646 72.814218 20.261536 68.524831 C 25.436313 63.707524 30.550574 58.818725 35.615326 53.880426 C 43.655205 59.159673 51.662057 64.493907 59.663404 69.844638 Z" transform="scale(1.000000,1.000000) translate(-0.030665,-0.071904)" fill="#140044" opacity="1.000000"></path>
        <path d="M 1.000000 72.919929 C 14.429067 72.897928 27.858133 72.908929 41.287200 72.914425 C 46.797421 72.908929 52.780567 72.749455 57.520885 69.581904 C 66.099643 63.494280 67.518482 49.988216 60.996425 41.904368 C 59.401640 39.748686 57.207459 38.164910 54.903255 36.850591 C 59.280606 34.738895 63.086085 31.076418 64.334417 26.259119 C 65.835691 20.253972 65.291274 13.451450 61.788279 8.216189 C 59.440105 4.630709 55.376179 2.486019 51.224280 1.776616 C 47.039388 1.078222 42.783003 0.968231 38.554108 1.006730 C 26.043400 1.017722 13.538197 1.001225 1.032994 1.017722 C 1.000000 24.983298 1.060483 48.948857 1.000000 72.919929 M 16.425283 60.117764 C 16.414274 54.530563 16.414274 48.943369 16.425283 43.356168 C 23.255295 43.356168 30.090812 43.328662 36.926329 43.367160 C 39.697953 43.488144 42.827006 43.350663 45.070661 45.280892 C 48.249221 47.717039 48.771653 52.292379 47.622303 55.910862 C 46.654436 57.120687 45.697579 58.457000 44.223794 59.083910 C 42.090097 59.985780 39.725443 60.046272 37.448761 60.123260 C 30.437265 60.123260 23.431274 60.128757 16.425283 60.117764 M 16.397794 30.575987 C 16.447268 24.983298 16.403265 19.390592 16.419779 13.792398 C 23.266305 13.808895 30.118301 13.759404 36.964827 13.814400 C 39.659455 13.951880 42.739000 13.671415 44.883706 15.645630 C 48.557176 18.389731 49.349064 24.218900 46.527965 27.815389 C 44.432767 30.251536 40.984750 30.433019 38.015196 30.554003 C 30.805703 30.592484 23.601748 30.537506 16.397794 30.575987 Z" transform="scale(1.000000,1.000000) translate(236.845711,5.389167)" fill="#262626" opacity="1.000000"></path>
        <path d="M 10.213933 72.940234 C 15.020239 72.918241 19.832049 72.978733 24.638355 72.901736 C 24.649365 66.451162 24.660374 60.006085 24.632851 53.555512 C 29.081762 53.561008 33.530606 53.555512 37.984954 53.555512 C 37.984954 49.843543 37.984954 46.131575 37.984954 42.419607 C 33.536110 42.419607 29.092704 42.419607 24.649365 42.419607 C 24.660374 35.259639 24.621842 28.099654 24.660374 20.939686 C 24.852833 18.360554 24.698839 15.077524 27.228463 13.532246 C 30.407024 11.470042 34.421475 12.586381 37.984954 12.311421 C 37.984954 8.555466 37.984954 4.793990 37.984954 1.038036 C 31.264933 1.356983 24.082930 0.004181 17.791863 2.990249 C 14.189852 4.552040 12.006681 8.165010 11.143267 11.860481 C 9.757522 17.546664 10.334899 23.441821 10.213933 29.232490 C 10.213933 33.626372 10.213933 38.025742 10.219437 42.419607 C 7.145396 42.419607 4.071289 42.419607 1.002752 42.419607 C 1.002752 46.131575 0.991743 49.838039 1.013761 53.550015 C 4.065784 53.566512 7.128883 53.539015 10.191914 53.577505 C 10.246960 60.028087 10.197419 66.484156 10.213933 72.940234 Z" transform="scale(1.000000,1.000000) translate(371.045720,5.357861)" fill="#262626" opacity="1.000000"></path>
        <path d="M 19.382921 53.819638 C 27.906700 55.881843 37.519312 55.518893 45.201695 50.943544 C 49.540582 48.430417 52.317711 44.020038 54.313927 39.549176 C 56.288126 34.478901 56.799582 28.935703 56.310144 23.540977 C 55.611733 16.710948 52.262732 9.880936 46.406058 6.058977 C 44.739780 4.805157 42.848083 3.914288 40.972833 3.039915 C 34.197833 0.790739 26.790344 0.361801 19.822885 1.951065 C 12.200985 3.776807 5.200431 9.259523 2.714844 16.842941 C 0.746083 22.881065 0.482132 29.480120 1.873448 35.666733 C 3.831133 44.311495 10.694139 51.713447 19.382921 53.819638 M 24.821650 43.519608 C 23.347832 43.206165 21.940068 42.568255 20.807198 41.578386 C 17.205254 38.900273 16.105412 34.154450 15.857907 29.909058 C 15.621479 24.948774 15.918391 19.284592 19.712860 15.600114 C 22.891421 12.196100 27.956174 11.503194 32.339097 12.361070 C 35.847597 12.949489 38.855650 15.594609 40.142447 18.872152 C 41.874712 22.875577 41.929691 27.379433 41.511745 31.652315 C 41.126827 35.479762 39.724501 39.461186 36.501971 41.803856 C 33.092486 44.047544 28.726077 44.399485 24.821650 43.519608 Z" transform="scale(1.000000,1.000000) translate(308.462881,4.664797)" fill="#262626" opacity="1.000000"></path>
        <path d="M 1.011009 53.528477 C 5.773312 53.550470 10.535649 53.511980 15.297952 53.550470 C 15.292447 42.870993 15.297952 32.186027 15.297952 21.506567 C 15.374949 19.169402 15.341955 16.562764 16.887232 14.638039 C 18.135530 12.845308 20.478200 12.240391 22.556918 12.278889 C 27.016771 12.278889 31.476624 12.306379 35.936511 12.284377 C 35.898012 26.037912 35.936511 39.791447 35.914493 53.550470 C 40.775811 53.522972 45.637096 53.522972 50.498414 53.550470 C 50.487405 36.035476 50.487405 18.520482 50.498414 1.000000 C 41.369702 1.038499 32.241023 1.010992 23.117815 1.016497 C 18.938427 1.016497 14.605045 0.994495 10.684105 2.627762 C 6.823680 4.107052 3.969588 7.544059 2.616770 11.382515 C 1.170474 15.138470 1.038499 19.213388 1.000000 23.189324 C 1.011009 33.302367 0.988991 43.415426 1.011009 53.528477 Z" transform="scale(1.000000,1.000000) translate(96.087865,5.379400)" fill="#262626" opacity="1.000000"></path>
        <path d="M 1.011009 1.054979 C 1.000000 18.553476 1.027523 36.051973 1.000000 53.550462 C 18.685485 53.495474 36.370937 53.533965 54.056422 53.533965 C 59.709594 53.511971 66.033688 53.368995 70.548553 49.459055 C 74.848941 45.686586 76.135738 39.675952 76.190750 34.182244 C 76.234720 23.128824 76.201726 12.075405 76.201726 1.021985 C 71.395420 1.005488 66.583609 1.016497 61.777303 1.010992 C 61.777303 10.222173 61.771799 19.427848 61.782808 28.639029 C 61.766294 31.427133 61.799288 34.231735 61.452835 37.008830 C 61.078893 39.730947 58.483281 41.672168 55.893140 42.079105 C 52.423138 42.618033 48.903663 42.321071 45.411643 42.392564 C 45.411643 28.600547 45.422652 14.808514 45.406138 1.021985 C 40.599832 1.005488 35.788021 1.016497 30.981715 1.010992 C 30.981715 14.808514 30.981715 28.600547 30.981715 42.392564 C 25.801467 42.392564 20.621185 42.392564 15.446441 42.392564 C 15.446441 28.595043 15.440936 14.797521 15.451946 1.000000 C 10.634630 1.054979 5.822820 0.961501 1.011009 1.054979 Z" transform="scale(1.000000,1.000000) translate(154.231024,5.384905)" fill="#262626" opacity="1.000000"></path>
        <path d="M 1.006344 49.262453 C 8.028849 42.283951 14.985332 35.244966 22.029821 28.288466 C 22.035326 19.192765 22.029821 10.102568 22.029821 1.006866 C 15.023830 0.995874 8.012352 1.001378 1.006344 1.001378 C 1.000856 17.086574 0.995351 33.177257 1.006344 49.262453 Z" transform="scale(1.000000,1.000000) translate(-0.022716,-0.216251)" fill="#3672d9" opacity="1.000000"></path>
    </g>
</svg>